<svg xmlns="http://www.w3.org/2000/svg" width="30" height="30" viewBox="0 0 30 30"><g><g><g/><g><path d="M22.793 2.344a3.52 3.52 0 0 1 3.516 3.515v20.625A3.52 3.52 0 0 1 22.797 30H7.266a3.52 3.52 0 0 1-3.516-3.516V5.86a3.52 3.52 0 0 1 3.516-3.515h4.478A3.522 3.522 0 0 1 15.059 0c1.527 0 2.83.98 3.314 2.344zm-11.25 2.344v2.285h7.031V4.687H16.23V3.516c0-.647-.525-1.172-1.171-1.172-.647 0-1.172.525-1.172 1.172v1.172zm12.422 1.171c0-.646-.526-1.172-1.172-1.172h-1.875v4.63H9.199v-4.63H7.266c-.647 0-1.172.526-1.172 1.172v20.625c0 .646.525 1.172 1.172 1.172h15.53c.644 0 1.169-.526 1.169-1.172zm-4.441 7.62l1.733 1.577-7.505 8.247-4.957-4.795 1.63-1.684 3.22 3.115z"/></g></g></g></svg>