<svg xmlns="http://www.w3.org/2000/svg" width="30" height="30" viewBox="0 0 30 30"><g><g><g/><g><path d="M25.86 23.891a.679.679 0 0 1-.68.68h-.382v4.071h.383a.679.679 0 0 1 0 1.358H7.534a3.398 3.398 0 0 1-3.394-3.394V3.394A3.398 3.398 0 0 1 7.534 0H25.18c.375 0 .679.304.679.679zm-1.358-4.47l-3.791 3.792h3.791zm0-18.064h-3.791l3.791 3.792zM5.497 23.893a3.376 3.376 0 0 1 2.037-.68v-3.394a.679.679 0 0 1 1.357 0v3.394h9.9l5.711-5.711V7.069l-5.711-5.712h-9.9v16.147a.679.679 0 0 1-1.357 0V1.357a2.039 2.039 0 0 0-2.037 2.037zm17.944 4.75V24.57H7.534a2.039 2.039 0 0 0-2.037 2.036c0 1.123.914 2.036 2.037 2.036z"/></g></g></g></svg>