<svg xmlns="http://www.w3.org/2000/svg" width="30" height="30" viewBox="0 0 30 30"><g><g><g/><g><g><g><g><path d="M30 9.236v14.201c0 .913-.4 1.768-.998 2.367a3.226 3.226 0 0 1-2.367.998H3.365a3.39 3.39 0 0 1-2.367-.998A3.226 3.226 0 0 1 0 23.437V9.236c0-.913.4-1.768.998-2.367a3.225 3.225 0 0 1 2.367-.998H8.07v-.057a2.627 2.627 0 0 1 2.652-2.624h8.556a2.61 2.61 0 0 1 1.853.77c.485.456.77 1.14.77 1.854v.057h4.734c.941 0 1.768.37 2.367.998.627.599.998 1.426.998 2.367zm-1.483 0c0-.514-.2-.97-.542-1.312a1.83 1.83 0 0 0-1.312-.542H21.16a.767.767 0 0 1-.77-.77v-.827a1.12 1.12 0 0 0-.314-.798 1.12 1.12 0 0 0-.798-.314H10.75a1.12 1.12 0 0 0-.799.314c-.2.2-.313.484-.313.798v.827c0 .428-.342.77-.77.77H3.365c-.513 0-.97.2-1.312.542a1.83 1.83 0 0 0-.542 1.312v14.201c0 .513.2.97.542 1.312a1.83 1.83 0 0 0 1.312.542h23.27c.513 0 .97-.2 1.312-.542a1.83 1.83 0 0 0 .542-1.312h.028z"/></g><g><path d="M19.957 11.383a7.028 7.028 0 0 1 2.053 4.962c0 1.94-.77 3.679-2.053 4.962a7.028 7.028 0 0 1-4.962 2.053c-1.939 0-3.678-.77-4.962-2.053a7.028 7.028 0 0 1-2.053-4.962c0-1.939.77-3.678 2.053-4.962a7.028 7.028 0 0 1 4.962-2.053c1.94 0 3.707.798 4.962 2.053zm.514 4.99c0-1.51-.6-2.88-1.597-3.878a5.573 5.573 0 0 0-3.879-1.597c-1.511 0-2.88.6-3.878 1.597a5.573 5.573 0 0 0-1.597 3.879c0 1.511.599 2.88 1.597 3.878a5.573 5.573 0 0 0 3.878 1.597c1.512 0 2.88-.627 3.879-1.597.998-.998 1.625-2.367 1.597-3.878z"/></g><g><path d="M25.147 12.095a1.397 1.397 0 1 0 0-2.795 1.397 1.397 0 0 0 0 2.795z"/></g></g></g></g></g></g></svg>