<svg xmlns="http://www.w3.org/2000/svg" width="30" height="30" viewBox="0 0 30 30"><g><g><g/><g><g><g><g><path d="M24.78 0c.88 0 1.596.716 1.596 1.595v26.403a2.004 2.004 0 0 1-3.453 1.38 1.984 1.984 0 0 1-.55-1.48l.42-8.377-.78-.194a1.519 1.519 0 0 1-1.137-1.693L23.199 1.37C23.311.589 23.99 0 24.78 0zm.624 1.595a.624.624 0 0 0-.624-.623h-.002a.626.626 0 0 0-.617.535l-2.323 16.265a.55.55 0 0 0 .411.612l1.167.291c.225.057.379.264.367.496l-.439 8.775a1.02 1.02 0 0 0 .283.762 1.031 1.031 0 0 0 1.777-.71z"/></g><g><path d="M19.087 10.241a1.53 1.53 0 0 1-.676 1.343l-.587.391a.548.548 0 0 0-.245.475l.458 15.495a1.983 1.983 0 0 1-.565 1.45c-.38.39-.888.605-1.432.605a1.983 1.983 0 0 1-1.433-.605c-.38-.39-.58-.905-.565-1.449L14.5 12.45a.548.548 0 0 0-.245-.475l-.587-.391a1.53 1.53 0 0 1-.676-1.343l.489-9.78a.486.486 0 1 1 .97.05l-.415 8.301h1.518V.486a.486.486 0 0 1 .972 0v8.326h1.517L17.628.51a.486.486 0 1 1 .97-.048zm-1.215.534a.553.553 0 0 0 .245-.486l-.025-.505h-4.104l-.025.505a.553.553 0 0 0 .244.486l.587.392c.44.293.693.783.678 1.312l-.458 15.495c-.008.279.095.543.29.743.195.2.456.311.736.311.28 0 .54-.11.736-.31.195-.201.298-.465.29-.745l-.458-15.494a1.514 1.514 0 0 1 .677-1.312z"/></g><g><path d="M11.086 2.93c.57 1.49.773 3.244.773 4.295 0 1.446-.738 2.759-1.974 3.513-.344.21-.544.565-.534.949l.396 16.26a1.988 1.988 0 0 1-.569 1.449c-.38.39-.89.604-1.434.604a1.988 1.988 0 0 1-1.433-.604 1.988 1.988 0 0 1-.57-1.449l.397-16.26c.01-.385-.19-.739-.534-.949A4.088 4.088 0 0 1 3.63 7.225c0-1.05.202-2.806.773-4.295C5.33.508 6.732 0 7.744 0c1.013 0 2.415.508 3.342 2.93zm-.199 4.295c0-2.04-.768-6.253-3.143-6.253-2.374 0-3.142 4.213-3.142 6.253 0 1.104.564 2.107 1.508 2.683a2.066 2.066 0 0 1 1 1.802l-.397 16.261c-.007.28.097.545.293.746.196.2.458.31.738.31.28 0 .543-.11.739-.31.196-.2.3-.466.293-.746l-.397-16.26a2.066 2.066 0 0 1 1-1.803 3.122 3.122 0 0 0 1.508-2.683z"/></g></g></g></g></g></g></svg>