<svg xmlns="http://www.w3.org/2000/svg">
	<symbol viewBox="0 0 30 30" id="aList">
		<path
			d="M22.793 2.344a3.52 3.52 0 0 1 3.516 3.515v20.625A3.52 3.52 0 0 1 22.797 30H7.266a3.52 3.52 0 0 1-3.516-3.516V5.86a3.52 3.52 0 0 1 3.516-3.515h4.478A3.522 3.522 0 0 1 15.059 0c1.527 0 2.83.98 3.314 2.344zm-11.25 2.344v2.285h7.031V4.687H16.23V3.516c0-.647-.525-1.172-1.171-1.172-.647 0-1.172.525-1.172 1.172v1.172zm12.422 1.171c0-.646-.526-1.172-1.172-1.172h-1.875v4.63H9.199v-4.63H7.266c-.647 0-1.172.526-1.172 1.172v20.625c0 .646.525 1.172 1.172 1.172h15.53c.644 0 1.169-.526 1.169-1.172zm-4.441 7.62l1.733 1.577-7.505 8.247-4.957-4.795 1.63-1.684 3.22 3.115z" />
	</symbol>
	<symbol viewBox="0 0 30 30" id="about">
		<g>
			<path
				d="M17.838 12.249a1.042 1.042 0 0 0-.957-.629l-3.87.007c-.369 0-.696.274-.846.622l-2.009 4.644c-.11.256-.115.539-.012.798a1.035 1.035 0 0 0 .968.658c.416 0 .792-.247.957-.628l.366-.846v8.862a1.149 1.149 0 0 0 2.295 0V19.83h.486v5.908a1.149 1.149 0 0 0 2.295 0v-8.993l.423.976a1.042 1.042 0 1 0 1.912-.827z" />
			<path
				d="M14.866 11.243a2.629 2.629 0 0 0 2.626-2.627 2.629 2.629 0 0 0-2.626-2.626 2.63 2.63 0 0 0-2.626 2.626 2.63 2.63 0 0 0 2.626 2.627z" />
			<path
				d="M25.768 5.921c.722.717 1.247 1.977 1.247 2.995v18.603A2.484 2.484 0 0 1 24.534 30H5.47a2.484 2.484 0 0 1-2.481-2.48V2.48A2.484 2.484 0 0 1 5.47 0h12.582c1.015 0 2.275.519 2.995 1.234zM24.534 27.52V9.462H20.67a2.484 2.484 0 0 1-2.48-2.48V2.49a.983.983 0 0 0-.137-.01H5.471v25.038z" />
		</g>
	</symbol>
	<symbol viewBox="0 0 30 30" id="blog">
		<path
			d="M25.86 23.891a.679.679 0 0 1-.68.68h-.382v4.071h.383a.679.679 0 0 1 0 1.358H7.534a3.398 3.398 0 0 1-3.394-3.394V3.394A3.398 3.398 0 0 1 7.534 0H25.18c.375 0 .679.304.679.679zm-1.358-4.47l-3.791 3.792h3.791zm0-18.064h-3.791l3.791 3.792zM5.497 23.893a3.376 3.376 0 0 1 2.037-.68v-3.394a.679.679 0 0 1 1.357 0v3.394h9.9l5.711-5.711V7.069l-5.711-5.712h-9.9v16.147a.679.679 0 0 1-1.357 0V1.357a2.039 2.039 0 0 0-2.037 2.037zm17.944 4.75V24.57H7.534a2.039 2.039 0 0 0-2.037 2.036c0 1.123.914 2.036 2.037 2.036z" />
	</symbol>
	<symbol viewBox="0 0 30 30" id="camera">
		<g>
			<path
				d="M30 9.236v14.201c0 .913-.4 1.768-.998 2.367a3.226 3.226 0 0 1-2.367.998H3.365a3.39 3.39 0 0 1-2.367-.998A3.226 3.226 0 0 1 0 23.437V9.236c0-.913.4-1.768.998-2.367a3.225 3.225 0 0 1 2.367-.998H8.07v-.057a2.627 2.627 0 0 1 2.652-2.624h8.556a2.61 2.61 0 0 1 1.853.77c.485.456.77 1.14.77 1.854v.057h4.734c.941 0 1.768.37 2.367.998.627.599.998 1.426.998 2.367zm-1.483 0c0-.514-.2-.97-.542-1.312a1.83 1.83 0 0 0-1.312-.542H21.16a.767.767 0 0 1-.77-.77v-.827a1.12 1.12 0 0 0-.314-.798 1.12 1.12 0 0 0-.798-.314H10.75a1.12 1.12 0 0 0-.799.314c-.2.2-.313.484-.313.798v.827c0 .428-.342.77-.77.77H3.365c-.513 0-.97.2-1.312.542a1.83 1.83 0 0 0-.542 1.312v14.201c0 .513.2.97.542 1.312a1.83 1.83 0 0 0 1.312.542h23.27c.513 0 .97-.2 1.312-.542a1.83 1.83 0 0 0 .542-1.312h.028z" />
			<path
				d="M19.957 11.383a7.028 7.028 0 0 1 2.053 4.962c0 1.94-.77 3.679-2.053 4.962a7.028 7.028 0 0 1-4.962 2.053c-1.939 0-3.678-.77-4.962-2.053a7.028 7.028 0 0 1-2.053-4.962c0-1.939.77-3.678 2.053-4.962a7.028 7.028 0 0 1 4.962-2.053c1.94 0 3.707.798 4.962 2.053zm.514 4.99c0-1.51-.6-2.88-1.597-3.878a5.573 5.573 0 0 0-3.879-1.597c-1.511 0-2.88.6-3.878 1.597a5.573 5.573 0 0 0-1.597 3.879c0 1.511.599 2.88 1.597 3.878a5.573 5.573 0 0 0 3.878 1.597c1.512 0 2.88-.627 3.879-1.597.998-.998 1.625-2.367 1.597-3.878z" />
			<path d="M25.147 12.095a1.397 1.397 0 1 0 0-2.795 1.397 1.397 0 0 0 0 2.795z" />
		</g>
	</symbol>
	<symbol viewBox="0 0 32 32" id="fb">
		<path
			d="M21.33 5.313h2.921V.225C23.747.156 22.014 0 19.995 0c-4.212 0-7.097 2.65-7.097 7.519V12H8.25v5.688h4.648V32h5.699V17.69h4.46L23.765 12h-5.17V8.083c.002-1.644.444-2.77 2.735-2.77z" />
	</symbol>
	<symbol viewBox="0 0 30 30" id="food">
		<g>
			<path
				d="M24.78 0c.88 0 1.596.716 1.596 1.595v26.403a2.004 2.004 0 0 1-3.453 1.38 1.984 1.984 0 0 1-.55-1.48l.42-8.377-.78-.194a1.519 1.519 0 0 1-1.137-1.693L23.199 1.37C23.311.589 23.99 0 24.78 0zm.624 1.595a.624.624 0 0 0-.624-.623h-.002a.626.626 0 0 0-.617.535l-2.323 16.265a.55.55 0 0 0 .411.612l1.167.291c.225.057.379.264.367.496l-.439 8.775a1.02 1.02 0 0 0 .283.762 1.031 1.031 0 0 0 1.777-.71z" />
			<path
				d="M19.087 10.241a1.53 1.53 0 0 1-.676 1.343l-.587.391a.548.548 0 0 0-.245.475l.458 15.495a1.983 1.983 0 0 1-.565 1.45c-.38.39-.888.605-1.432.605a1.983 1.983 0 0 1-1.433-.605c-.38-.39-.58-.905-.565-1.449L14.5 12.45a.548.548 0 0 0-.245-.475l-.587-.391a1.53 1.53 0 0 1-.676-1.343l.489-9.78a.486.486 0 1 1 .97.05l-.415 8.301h1.518V.486a.486.486 0 0 1 .972 0v8.326h1.517L17.628.51a.486.486 0 1 1 .97-.048zm-1.215.534a.553.553 0 0 0 .245-.486l-.025-.505h-4.104l-.025.505a.553.553 0 0 0 .244.486l.587.392c.44.293.693.783.678 1.312l-.458 15.495c-.008.279.095.543.29.743.195.2.456.311.736.311.28 0 .54-.11.736-.31.195-.201.298-.465.29-.745l-.458-15.494a1.514 1.514 0 0 1 .677-1.312z" />
			<path
				d="M11.086 2.93c.57 1.49.773 3.244.773 4.295 0 1.446-.738 2.759-1.974 3.513-.344.21-.544.565-.534.949l.396 16.26a1.988 1.988 0 0 1-.569 1.449c-.38.39-.89.604-1.434.604a1.988 1.988 0 0 1-1.433-.604 1.988 1.988 0 0 1-.57-1.449l.397-16.26c.01-.385-.19-.739-.534-.949A4.088 4.088 0 0 1 3.63 7.225c0-1.05.202-2.806.773-4.295C5.33.508 6.732 0 7.744 0c1.013 0 2.415.508 3.342 2.93zm-.199 4.295c0-2.04-.768-6.253-3.143-6.253-2.374 0-3.142 4.213-3.142 6.253 0 1.104.564 2.107 1.508 2.683a2.066 2.066 0 0 1 1 1.802l-.397 16.261c-.007.28.097.545.293.746.196.2.458.31.738.31.28 0 .543-.11.739-.31.196-.2.3-.466.293-.746l-.397-16.26a2.066 2.066 0 0 1 1-1.803 3.122 3.122 0 0 0 1.508-2.683z" />
		</g>
	</symbol>
	<symbol viewBox="0 0 32 26" id="mail">
		<path
			d="M29.188 0C30.741 0 32 1.352 32 3v20c0 1.658-1.268 3-2.813 3H2.813C1.258 26 0 24.648 0 23V3c0-1.654 1.264-3 2.813-3zM3.21 2l12.85 13.589L28.8 2zm7.695 10.954l-9.03-9.55v19.182zM28.799 24l-8.987-9.586-3.087 3.293a.896.896 0 0 1-1.323.003l-3.166-3.348L3.201 24zm1.326-20.586L21.138 13l8.987 9.586z" />
	</symbol>
	<symbol viewBox="0 0 32 32" id="rss">
		<path
			d="M31.999 29.429a2.57 2.57 0 1 1-5.14 0C26.859 16.036 15.963 5.14 2.57 5.14a2.57 2.57 0 0 1 0-5.14C18.8 0 32 13.202 32 29.429zm-12.023.002a2.57 2.57 0 1 1-5.14 0c0-6.76-5.504-12.264-12.265-12.264a2.57 2.57 0 1 1 0-5.14c9.595 0 17.405 7.807 17.405 17.404zM8.45 27.388a3.839 3.839 0 1 1-7.675 0 3.839 3.839 0 0 1 7.675 0z" />
	</symbol>
	<symbol viewBox="0 0 32 26" id="twitterFooter">
		<path
			d="M32 3.078c-1.19.522-2.458.868-3.78 1.036A6.523 6.523 0 0 0 31.106.488a13.11 13.11 0 0 1-4.16 1.588A6.574 6.574 0 0 0 22.154 0c-3.632 0-6.556 2.948-6.556 6.562 0 .52.044 1.02.152 1.496-5.454-.266-10.28-2.88-13.522-6.862a6.605 6.605 0 0 0-.898 3.316 6.57 6.57 0 0 0 2.914 5.452 6.479 6.479 0 0 1-2.964-.808v.072c0 3.188 2.274 5.836 5.256 6.446a6.548 6.548 0 0 1-1.72.216 5.8 5.8 0 0 1-1.242-.112c.85 2.598 3.262 4.508 6.13 4.57a13.182 13.182 0 0 1-8.134 2.798c-.538 0-1.054-.024-1.57-.09A18.469 18.469 0 0 0 10.064 26c12.072 0 18.672-10 18.672-18.668 0-.29-.01-.57-.024-.848A13.087 13.087 0 0 0 32 3.078z" />
	</symbol>
	<symbol viewBox="0 0 16 14" id="twitter">
		<path fill="#34aca7"
			d="M16 2.039a6.839 6.839 0 0 1-1.89.518A3.262 3.262 0 0 0 15.553.744a6.555 6.555 0 0 1-2.08.794 3.28 3.28 0 0 0-5.674 2.243c0 .26.022.51.076.748a9.284 9.284 0 0 1-6.761-3.431 3.285 3.285 0 0 0 1.008 4.384A3.24 3.24 0 0 1 .64 5.078v.036a3.295 3.295 0 0 0 2.628 3.223 3.274 3.274 0 0 1-.86.108 2.9 2.9 0 0 1-.621-.056 3.311 3.311 0 0 0 3.065 2.285 6.59 6.59 0 0 1-4.067 1.399c-.269 0-.527-.012-.785-.045A9.234 9.234 0 0 0 5.032 13.5c6.036 0 9.336-5 9.336-9.334 0-.145-.005-.285-.012-.424A6.544 6.544 0 0 0 16 2.039z" />
	</symbol>
</svg>
