<svg xmlns="http://www.w3.org/2000/svg" width="30" height="30" viewBox="0 0 30 30"><g><g><g/><g><g><path d="M17.838 12.249a1.042 1.042 0 0 0-.957-.629l-3.87.007c-.369 0-.696.274-.846.622l-2.009 4.644c-.11.256-.115.539-.012.798a1.035 1.035 0 0 0 .968.658c.416 0 .792-.247.957-.628l.366-.846v8.862a1.149 1.149 0 0 0 2.295 0V19.83h.486v5.908a1.149 1.149 0 0 0 2.295 0v-8.993l.423.976a1.042 1.042 0 1 0 1.912-.827z"/></g><g><path d="M14.866 11.243a2.629 2.629 0 0 0 2.626-2.627 2.629 2.629 0 0 0-2.626-2.626 2.63 2.63 0 0 0-2.626 2.626 2.63 2.63 0 0 0 2.626 2.627z"/></g><g><path d="M25.768 5.921c.722.717 1.247 1.977 1.247 2.995v18.603A2.484 2.484 0 0 1 24.534 30H5.47a2.484 2.484 0 0 1-2.481-2.48V2.48A2.484 2.484 0 0 1 5.47 0h12.582c1.015 0 2.275.519 2.995 1.234zM24.534 27.52V9.462H20.67a2.484 2.484 0 0 1-2.48-2.48V2.49a.983.983 0 0 0-.137-.01H5.471v25.038z"/></g></g></g></g></svg>